# xmcd
#
# Track frame offsets:
#	150
#	13567
#	27552
#	40570
#	58433
#	73261
#	92127
#	105488
#	121734
#	142167
#	158516
#	179354
#	194557
#	212049
#
# Disc length: 3132 seconds
#
# Revision: 1
# Processed by: cddbd v1.5.2PL0 Copyright (c) Steve Scherf et al.
# Submitted via: audiograbber 1.83.01
#
DISCID=c90c3a0e
DTITLE=The Blue Voodoo - Back to The Shack
DYEAR=2007
DGENRE=Blues
TTITLE0=Somewhere else instead 
TTITLE1=Watcha think about that
TTITLE2=Shoestring Shuffle
TTITLE3=Black Moon
TTITLE4=Monday Morning Blues
TTITLE5=Reason Why
TTITLE6=Sunny Day
TTITLE7=Simple
TTITLE8=Suitcase Blues
TTITLE9=Uncle Tom's Cabin
TTITLE10=Gone
TTITLE11=Mojo Lovin' Man
TTITLE12=World is Burnin'
TTITLE13=Texas Speed Trap
EXTD=
EXTT0=
EXTT1=
EXTT2=
EXTT3=
EXTT4=
EXTT5=
EXTT6=
EXTT7=
EXTT8=
EXTT9=
EXTT10=
EXTT11=
EXTT12=
EXTT13=
PLAYORDER=
